<svg xmlns="http://www.w3.org/2000/svg" width="176mm" height="190mm" viewBox="0 0 176 190">
  <title>BeadGrid blank 16 by 16 board, 10 mm pitch</title>
  <defs><pattern id="grid" x="8" y="8" width="10" height="10" patternUnits="userSpaceOnUse"><rect width="10" height="10" fill="#fff" stroke="#aeb8b4" stroke-width=".2"/></pattern></defs>
  <rect width="176" height="190" fill="#fff"/>
  <text x="8" y="4" font-family="Arial,sans-serif" font-size="2.5" font-weight="700">MAXI 16 × 16 · 10 mm · PRINT AT 100%</text>
  <rect x="8" y="8" width="160" height="160" fill="url(#grid)" stroke="#20282b" stroke-width=".4"/>
  <g font-family="Arial,sans-serif" font-size="2.2" fill="#38423f" text-anchor="middle">
    <text x="13" y="6.4">1</text><text x="53" y="6.4">5</text><text x="103" y="6.4">10</text><text x="153" y="6.4">15</text><text x="163" y="6.4">16</text>
    <text x="13" y="172.5">1</text><text x="53" y="172.5">5</text><text x="103" y="172.5">10</text><text x="153" y="172.5">15</text><text x="163" y="172.5">16</text>
  </g>
  <g font-family="Arial,sans-serif" font-size="2.2" fill="#38423f" text-anchor="middle" dominant-baseline="central">
    <text x="4.5" y="13">1</text><text x="4.5" y="53">5</text><text x="4.5" y="103">10</text><text x="4.5" y="153">15</text><text x="4.5" y="163">16</text>
    <text x="171.5" y="13">1</text><text x="171.5" y="53">5</text><text x="171.5" y="103">10</text><text x="171.5" y="153">15</text><text x="171.5" y="163">16</text>
  </g>
  <g transform="translate(8 179)" font-family="Arial,sans-serif" font-size="2.4" fill="#38423f"><text y="2">CALIBRATION</text><path d="M26 0v5h50V0" fill="none" stroke="#20282b" stroke-width=".4"/><text x="82" y="3">50 mm</text></g>
</svg>
